<?xml version="1.0" encoding="UTF-8" standalone="no"?>
<svg
   xmlns:dc="http://purl.org/dc/elements/1.1/"
   xmlns:cc="http://creativecommons.org/ns#"
   xmlns:rdf="http://www.w3.org/1999/02/22-rdf-syntax-ns#"
   xmlns:svg="http://www.w3.org/2000/svg"
   xmlns="http://www.w3.org/2000/svg"
   xmlns:sodipodi="http://sodipodi.sourceforge.net/DTD/sodipodi-0.dtd"
   xmlns:inkscape="http://www.inkscape.org/namespaces/inkscape"
   inkscape:version="1.0 (4035a4fb49, 2020-05-01)"
   sodipodi:docname="share.svg"
   id="svg16"
   width="24"
   version="1.1"
   height="24">
  <metadata
     id="metadata22">
    <rdf:RDF>
      <cc:Work
         rdf:about="">
        <dc:format>image/svg+xml</dc:format>
        <dc:type
           rdf:resource="http://purl.org/dc/dcmitype/StillImage" />
        <dc:title></dc:title>
      </cc:Work>
    </rdf:RDF>
  </metadata>
  <defs
     id="defs20" />
  <sodipodi:namedview
     inkscape:current-layer="svg16"
     inkscape:window-maximized="1"
     inkscape:window-y="-8"
     inkscape:window-x="54"
     inkscape:cy="9.5699577"
     inkscape:cx="-120.74069"
     inkscape:zoom="2.128686"
     showgrid="false"
     id="namedview18"
     inkscape:window-height="745"
     inkscape:window-width="1304"
     inkscape:pageshadow="2"
     inkscape:pageopacity="0"
     guidetolerance="10"
     gridtolerance="10"
     objecttolerance="10"
     borderopacity="1"
     bordercolor="#666666"
     pagecolor="#ffffff" />
  <g
     id="g14"
     transform="translate(0 -1028.4)">
    <path
       id="path2"
       transform="translate(0 1028.4)"
       fill="#16a085"
       d="m3 8v2 1 3 1 5 1c0 1.105 0.8954 2 2 2h14c1.105 0 2-0.895 2-2v-1-5-4-3h-18z" />
    <path
       id="path4"
       fill="#ecf0f1"
       d="m3 1035.4v2 1 3 1 5 1c0 1.1 0.8954 2 2 2h14c1.105 0 2-0.9 2-2v-1-5-4-3h-18z" />
    <path
       id="path6"
       fill="#bdc3c7"
       d="m3 1034.4v2 1 3 1 5 1c0 1.1 0.8954 2 2 2h14c1.105 0 2-0.9 2-2v-1-5-4-3h-18z" />
    <path
       id="path8"
       fill="#ecf0f1"
       d="m3 1033.4v2 1 3 1 5 1c0 1.1 0.8954 2 2 2h14c1.105 0 2-0.9 2-2v-1-5-4-3h-18z" />
    <path
       id="path10"
       transform="translate(0 1028.4)"
       fill="#16a085"
       d="m5 1c-1.1046 0-2 0.8954-2 2v1 4 2 1 3 1 5 1c0 1.105 0.8954 2 2 2h2v-1h-1.5c-0.8284 0-1.5-0.672-1.5-1.5s0.6716-1.5 1.5-1.5h12.5 1c1.105 0 2-0.895 2-2v-1-5-4-3-1c0-1.1046-0.895-2-2-2h-4-10z" />
    <path
       id="path12"
       transform="translate(0 1028.4)"
       fill="#1abc9c"
       d="m8 1v18h1 9 1c1.105 0 2-0.895 2-2v-1-5-4-3-1c0-1.1046-0.895-2-2-2h-4-6-1z" />
  </g>
  <path
     id="path26"
     d="M 8.0182238,10.012861 V 1.0256488 l 5.7400432,0.015806 5.740043,0.015806 0.32297,0.1548984 c 0.570862,0.2737898 0.929669,0.7100792 1.085415,1.3198023 0.08113,0.317626 0.08985,1.1973476 0.07568,7.6350865 l -0.01602,7.276097 -0.191414,0.388783 c -0.222774,0.452479 -0.541144,0.763048 -1.005333,0.980701 l -0.330016,0.154742 -5.710683,0.01635 -5.7106822,0.01635 z"
     style="opacity:0.98;fill:#ff8080;stroke:#000000;stroke-width:0" />
  <path
     id="path28"
     d="M 4.5622635,22.927345 C 4.0184984,22.819011 3.4664328,22.36709 3.2100825,21.82045 L 3.0562426,21.492403 v -9.48355 -9.48355 L 3.2119349,2.1932094 C 3.4054324,1.7804767 3.7789188,1.4092338 4.2013152,1.209772 4.5228085,1.0579582 4.5321335,1.0571792 6.2418932,1.039319 L 7.9595021,1.021377 v 8.984852 8.984853 l -1.4875133,0.0175 -1.4875134,0.0175 -0.2888172,0.178274 c -0.3408681,0.210403 -0.6456567,0.6729 -0.7052259,1.070136 -0.093994,0.626801 0.2261873,1.255102 0.8001876,1.570231 l 0.3208812,0.176165 6.8997959,0.01665 c 4.090018,0.0099 7.044603,-0.0058 7.255389,-0.03837 0.718442,-0.111168 1.247064,-0.500025 1.567027,-1.15271 l 0.172721,-0.35233 -0.03351,0.449661 c -0.06653,0.892687 -0.429946,1.474656 -1.138784,1.823646 l -0.392012,0.193003 -7.312116,0.0089 c -4.0216639,0.0049 -7.4271494,-0.014 -7.5677455,-0.04201 z"
     style="opacity:0.98;fill:#ff5555;stroke:#000000;stroke-width:0" />
  <text
     transform="scale(0.94274538,1.0607318)"
     id="text32"
     y="15.452082"
     x="7.1825833"
     style="font-style:normal;font-variant:normal;font-weight:bold;font-stretch:normal;font-size:15.3336px;line-height:1.25;font-family:sans-serif;-inkscape-font-specification:'sans-serif, Bold';font-variant-ligatures:normal;font-variant-caps:normal;font-variant-numeric:normal;font-variant-east-asian:normal;fill:#ffffff;fill-opacity:1;stroke:none;stroke-width:0.161893"
     xml:space="preserve"><tspan
       style="font-style:normal;font-variant:normal;font-weight:bold;font-stretch:normal;font-size:15.3336px;font-family:sans-serif;-inkscape-font-specification:'sans-serif, Bold';font-variant-ligatures:normal;font-variant-caps:normal;font-variant-numeric:normal;font-variant-east-asian:normal;fill:#ffffff;stroke-width:0.161893"
       sodipodi:role="line"
       y="15.452082"
       x="7.1825833"
       id="tspan30">S</tspan></text>
</svg>
